<svg width="118" height="126" viewBox="0 0 118 126" fill="none" xmlns="http://www.w3.org/2000/svg">
<path d="M79.6159 21.0315C79.6159 16.8901 78.3817 12.7908 76.0836 9.32551C73.7854 5.86019 70.551 3.15554 66.7208 1.54966C62.9332 -0.0139609 58.7199 -0.394301 54.6343 0.40864C50.5913 1.25384 46.8462 3.28232 43.9523 6.24053C41.7393 8.43805 40.0795 11.1004 39.0156 14.0164C37.9516 16.9323 37.5686 20.0596 37.8665 23.1868C38.1644 26.2718 39.1432 29.2723 40.7604 31.9346C42.3777 34.597 44.5055 36.8791 47.1016 38.6117C49.953 40.5134 53.2299 41.6967 56.6346 42.0348C60.0392 42.3729 63.4864 41.8657 66.6783 40.5557C69.2317 39.4569 71.5299 37.8933 73.445 35.8648C77.4029 31.9346 79.6159 26.5676 79.6159 21.0315Z" fill="#5152FB"/>
<path d="M12.842 54.4595L50.0802 119.371C54.7616 127.696 62.6774 127.696 67.4013 119.371L83.7436 90.8031C60.4644 96.5082 26.035 77.4489 12.842 54.4595Z" fill="#FDBC42"/>
<path d="M109.323 21.0312C101.364 21.0312 91.661 28.2155 87.7457 37.0055C87.7457 37.0055 78.6808 57.4171 58.7211 57.4171C51.8693 57.4171 45.2302 54.9238 40.0382 50.402C46.5921 58.3891 68.935 75.6735 101.96 59.0653L115.068 36.2449C119.877 27.8351 117.238 21.0312 109.323 21.0312Z" fill="#5152FB"/>
<path d="M40.037 50.3617C35.7387 46.6428 32.2064 42.0787 29.738 36.9653C25.8227 28.1752 16.1194 20.991 8.20365 20.991C0.202753 21.0332 -2.39328 27.8371 2.41577 36.2046L12.8425 54.4187C26.0354 77.4081 60.4649 96.5097 83.8292 90.7623L102.001 59.0673C68.8913 75.6755 46.591 58.3911 40.037 50.3617Z" fill="#FA4769"/>
</svg>
