<svg width="64" height="64" viewBox="0 0 64 64" fill="none" xmlns="http://www.w3.org/2000/svg">
	<path d="M36.3511 20.3254C36.0848 20.3254 35.8186 20.2811 35.5524 20.2145C34.0881 19.7709 33.245 18.2182 33.6887 16.7543L38.126 1.98161C38.5697 0.517651 40.1227 -0.325231 41.587 0.118392C43.0513 0.562015 43.8944 2.1147 43.4507 3.57865L39.0134 18.3513C38.6362 19.5491 37.5269 20.3254 36.3511 20.3254Z" fill="#8D95FF"/>
	<path d="M23.2183 63.9993C22.952 63.9993 22.6858 63.9549 22.4195 63.8883C20.9552 63.4447 20.1122 61.892 20.5559 60.4281L24.9932 45.6554C25.4369 44.1915 26.9899 43.3486 28.4542 43.7922C29.9185 44.2358 30.7616 45.7885 30.3178 47.2525L25.8806 62.0251C25.5034 63.2229 24.3941 63.9993 23.2183 63.9993Z" fill="#8D95FF"/>
	<path d="M45.2907 27.623C44.2923 27.623 43.3383 27.0907 42.8502 26.1591C42.1181 24.806 42.6284 23.1202 43.9817 22.4104L57.5818 15.1128C58.9352 14.3809 60.6214 14.891 61.3313 16.2441C62.0413 17.5971 61.5532 19.2829 60.1998 19.9927L46.5997 27.2903C46.1781 27.5121 45.7344 27.623 45.2907 27.623Z" fill="#8D95FF"/>
	<path d="M5.11102 49.2273C4.11264 49.2273 3.15863 48.6949 2.67054 47.7633C1.93839 46.4103 2.44867 44.7245 3.80203 44.0147L17.4022 36.7171C18.7555 35.9851 20.4417 36.4953 21.1516 37.8483C21.8838 39.2014 21.3735 40.8871 20.0201 41.5969L6.42001 48.8945C6.02066 49.1164 5.55474 49.2273 5.11102 49.2273Z" fill="#8D95FF"/>
	<path d="M61.2168 43.5488C60.9506 43.5488 60.6843 43.5045 60.4181 43.4379L45.6421 39.0017C44.1778 38.5581 43.3347 37.0054 43.7784 35.5414C44.2222 34.0775 45.7752 33.2346 47.2395 33.6782L62.0155 38.1144C63.4798 38.5581 64.3229 40.1107 63.8792 41.5747C63.5242 42.7725 62.4149 43.5488 61.2168 43.5488Z" fill="#8D95FF"/>
	<path d="M17.5568 30.4177C17.2905 30.4177 17.0243 30.3734 16.7581 30.3068L1.98206 25.8706C0.517775 25.427 -0.325306 23.8743 0.118418 22.4103C0.562142 20.9464 2.11517 20.1035 3.57946 20.5471L18.3554 24.9833C19.8197 25.427 20.6628 26.9796 20.2191 28.4436C19.8419 29.6414 18.7326 30.4177 17.5568 30.4177Z" fill="#8D95FF"/>
	<path d="M46.4415 61.65C45.4431 61.65 44.4891 61.1177 44.001 60.186L36.7018 46.589C35.9697 45.2359 36.4799 43.5502 37.8333 42.8404C39.1866 42.1084 40.8728 42.6186 41.5828 43.9716L48.882 57.5687C49.6141 58.9217 49.1039 60.6075 47.7505 61.3173C47.3512 61.5391 46.8852 61.65 46.4415 61.65Z" fill="#8D95FF"/>
	<path d="M24.8517 21.4791C23.8533 21.4791 22.8993 20.9468 22.4112 20.0152L15.1119 6.4181C14.3798 5.06505 14.8901 3.37928 16.2434 2.66948C17.5968 1.93751 19.2829 2.44767 19.9929 3.80072L27.2921 17.3978C28.0243 18.7508 27.514 20.4366 26.1607 21.1464C25.7391 21.3682 25.2954 21.4791 24.8517 21.4791Z" fill="#8D95FF"/>
</svg>
